<svg xmlns="http://www.w3.org/2000/svg" viewBox="0 0 400 600" width="400" height="600" role="img" aria-label="Hidden Cleaning Hacks — ebook cover">
  <title>Hidden Cleaning Hacks</title>
  <defs>
    <linearGradient id="coverBg" x1="15%" y1="0%" x2="85%" y2="100%">
      <stop offset="0%" stop-color="#2c5136"/>
      <stop offset="100%" stop-color="#16130f"/>
    </linearGradient>
    <filter id="coverGrain">
      <feTurbulence type="fractalNoise" baseFrequency="0.85" numOctaves="2" stitchTiles="stitch" result="n"/>
      <feColorMatrix in="n" type="saturate" values="0"/>
    </filter>
  </defs>

  <rect width="400" height="600" fill="url(#coverBg)"/>
  <rect width="400" height="600" filter="url(#coverGrain)" opacity="0.07"/>
  <rect x="18" y="18" width="364" height="564" rx="4" fill="none" stroke="rgba(240,230,210,0.32)" stroke-width="1.2"/>

  <circle cx="200" cy="112" r="30" fill="none" stroke="#5fae7a" stroke-width="1.4"/>
  <g transform="translate(186,96) scale(1.15)">
    <path d="M12 2C12 2 3 14 3 21a9 9 0 0018 0C21 14 12 2 12 2Z" fill="#5fae7a"/>
  </g>

  <text x="200" y="182" text-anchor="middle" font-family="'Space Mono','Courier New',monospace" font-size="11" letter-spacing="4" fill="#8fbf9c">FIELD EDITION</text>
  <line x1="168" y1="198" x2="232" y2="198" stroke="#5fae7a" stroke-width="1"/>

  <text x="200" y="256" text-anchor="middle" font-family="'Playfair Display',Georgia,serif" font-weight="800" font-size="40" fill="#f0e6d2">Hidden</text>
  <text x="200" y="304" text-anchor="middle" font-family="'Playfair Display',Georgia,serif" font-weight="800" font-size="38" letter-spacing="-0.5" fill="#f0e6d2">Cleaning Hacks</text>

  <line x1="150" y1="334" x2="188" y2="334" stroke="rgba(240,230,210,0.35)" stroke-width="1"/>
  <rect x="196" y="330" width="8" height="8" transform="rotate(45 200 334)" fill="#5fae7a"/>
  <line x1="212" y1="334" x2="250" y2="334" stroke="rgba(240,230,210,0.35)" stroke-width="1"/>

  <text x="200" y="370" text-anchor="middle" font-family="'Space Mono','Courier New',monospace" font-size="13" letter-spacing="1" fill="#c8bca0">$1 CLEANING FORMULAS</text>
  <text x="200" y="390" text-anchor="middle" font-family="'Space Mono','Courier New',monospace" font-size="13" letter-spacing="1" fill="#c8bca0">FOR EVERY ROOM IN THE HOUSE</text>

  <line x1="120" y1="548" x2="280" y2="548" stroke="rgba(240,230,210,0.18)" stroke-width="1"/>
  <text x="200" y="572" text-anchor="middle" font-family="'Space Mono','Courier New',monospace" font-size="10.5" letter-spacing="2" fill="#8fbf9c">63 FORMULAS &#183; 9 ROOMS &#183; A&#8211;Z INDEX</text>
</svg>
